<?xml version="1.0" encoding="UTF-8" standalone="no"?>
<!-- Created with Inkscape (http://www.inkscape.org/) -->

<svg
   width="205.33641mm"
   height="67.248711mm"
   viewBox="0 0 205.33641 67.248711"
   version="1.1"
   id="svg1"
   inkscape:version="1.4.2 (ebf0e940d0, 2025-05-08)"
   sodipodi:docname="drawing.svg"
   inkscape:export-filename="gittor_full.svg"
   inkscape:export-xdpi="96"
   inkscape:export-ydpi="96"
   inkscape:export-batch-path="/home/isaac/Pictures"
   inkscape:export-batch-name="gittor_full"
   xmlns:inkscape="http://www.inkscape.org/namespaces/inkscape"
   xmlns:sodipodi="http://sodipodi.sourceforge.net/DTD/sodipodi-0.dtd"
   xmlns="http://www.w3.org/2000/svg"
   xmlns:svg="http://www.w3.org/2000/svg">
  <sodipodi:namedview
     id="namedview1"
     pagecolor="#505050"
     bordercolor="#eeeeee"
     borderopacity="1"
     inkscape:showpageshadow="0"
     inkscape:pageopacity="0"
     inkscape:pagecheckerboard="0"
     inkscape:deskcolor="#505050"
     inkscape:document-units="mm"
     inkscape:zoom="2"
     inkscape:cx="324.5"
     inkscape:cy="79"
     inkscape:window-width="3440"
     inkscape:window-height="1368"
     inkscape:window-x="2560"
     inkscape:window-y="0"
     inkscape:window-maximized="1"
     inkscape:current-layer="layer1">
    <inkscape:page
       x="0"
       y="0"
       width="205.33641"
       height="67.248711"
       id="page2"
       margin="0"
       bleed="0" />
  </sodipodi:namedview>
  <defs
     id="defs1" />
  <g
     inkscape:label="Layer 1"
     inkscape:groupmode="layer"
     id="layer1"
     transform="translate(-6.9698459,-51.490353)">
    <g
       id="text5"
       style="font-size:75.4944px;line-height:0;font-family:Inter;-inkscape-font-specification:Inter;fill:#030303;fill-opacity:1;stroke-width:0.639397"
       transform="scale(1.0656603,0.93838533)"
       aria-label="GitTor">
      <path
         style="font-family:Jua;-inkscape-font-specification:Jua;letter-spacing:-3.96875px;fill:#030303;fill-opacity:1;stroke-width:0.639396"
         d="m 60.562425,107.43547 q 0,2.26483 -0.226483,4.60516 -0.226483,2.26483 -0.905933,4.45417 -0.679449,2.11384 -2.038349,4.0767 -1.358899,1.88736 -3.699225,3.32175 -1.132416,0.75494 -2.717799,1.2834 -1.509888,0.45297 -3.246259,0.75495 -1.660877,0.37747 -3.321753,0.45296 -1.660877,0.15099 -3.095271,0.0755 -6.794496,-0.22648 -11.022182,-3.24626 -4.152192,-3.09527 -6.417024,-7.62493 -2.189338,-4.52967 -2.868787,-9.81428 -0.603956,-5.3601 -0.226484,-10.191741 0.226484,-2.868787 0.981428,-6.190541 0.830438,-3.321753 2.340326,-6.417024 1.585382,-3.09527 3.850214,-5.586585 2.340327,-2.491315 5.511092,-3.77472 2.944281,-1.207911 6.417024,-1.509888 3.548236,-0.377472 6.945484,0.226483 3.472743,0.603955 6.417024,2.189338 3.019776,1.585382 4.756148,4.227686 1.20791,1.962854 1.88736,4.756147 0.679449,2.793293 0.226483,5.360103 -0.377472,2.264832 -1.585383,3.170764 -1.20791,0.830439 -2.642304,0.67945 -1.434393,-0.226483 -2.793292,-1.20791 -1.283405,-1.056922 -1.736372,-2.642304 -0.52846,-1.736372 -1.283404,-3.170765 -0.754944,-1.509888 -2.340327,-2.491315 -1.811865,-1.132416 -3.850214,-1.283405 -1.962855,-0.150989 -3.850215,0.452966 -1.811865,0.603955 -3.472742,1.88736 -1.585382,1.283405 -2.642304,2.944282 -1.283405,1.88736 -1.962854,4.152192 -0.67945,2.189337 -0.981428,4.605158 -0.301977,2.340327 -0.226483,4.756149 0.150989,2.34032 0.603955,4.52966 0.830439,3.69923 2.56681,6.94549 0.67945,1.20791 1.811866,2.18933 1.20791,0.90594 2.642304,1.50989 1.434393,0.52846 3.019776,0.67945 1.585382,0.15099 3.019776,-0.22648 2.038348,-0.52846 3.321753,-1.3589 1.283405,-0.90593 2.038349,-2.11384 0.754944,-1.20791 0.981427,-2.64231 0.301978,-1.43439 0.301978,-3.01977 v -0.0755 q -0.981427,0 -1.736371,0 -0.754944,-0.0755 -1.132416,-0.0755 -1.660877,0 -3.24626,-0.60396 -1.358899,-0.45296 -2.038348,-1.43439 -0.754944,-0.83044 -0.754944,-2.03835 0,-0.45297 0,-0.83044 0.07549,-0.45296 0.150988,-0.90593 0.226484,-0.60396 0.981428,-1.509889 0.452966,-0.377472 1.434393,-0.603955 0.452967,-0.150989 0.905933,-0.226483 0.452966,-0.150989 1.056922,-0.226483 0.452966,-0.0755 0.981427,-0.0755 0.528461,0 1.056921,0 h 6.869991 q 0.830438,-0.07549 1.88736,0.226483 1.132416,0.226484 1.736371,0.754944 0.226483,0.301978 0.452966,0.603963 0.226484,0.30198 0.377472,0.67945 0.301978,0.83044 0.377472,1.66087 0.07549,0.45297 0.07549,0.98143 0.07549,0.45297 0.07549,0.83044 z"
         id="path28" />
      <path
         style="font-family:Jua;-inkscape-font-specification:Jua;letter-spacing:-5.29167px;fill:#030303;fill-opacity:1;stroke-width:0.639396"
         d="m 72.145464,96.79076 q 0,2.113843 0,4.75615 0.07549,2.6423 0.07549,5.51109 0,2.79329 0,5.58658 0,2.7178 -0.07549,5.05813 -0.07549,1.13241 -0.226483,2.49131 -0.150989,1.28341 -0.603955,2.41582 -0.452967,1.13242 -1.434394,1.88736 -0.905933,0.67945 -2.491315,0.60396 -2.340326,-0.15099 -3.397248,-2.03835 -0.981427,-1.88736 -1.132416,-5.28461 0,-1.73637 -0.07549,-4.0012 0,-2.26483 -0.0755,-4.60516 0,-2.34033 0,-4.52966 0,-2.26483 0,-4.0767 0,-1.056922 -0.07549,-2.56681 0,-1.509888 0.07549,-3.09527 0.0755,-1.585383 0.377472,-3.019776 0.301978,-1.509888 0.981427,-2.491316 0.528461,-0.603955 1.509888,-0.905932 0.981428,-0.377472 2.038349,-0.377472 1.132416,0 2.113843,0.377472 1.056922,0.377472 1.509888,1.056921 0.301978,0.452967 0.452967,1.283405 0.150989,0.830438 0.226483,1.88736 0.150989,0.981427 0.150989,2.113843 0.07549,1.056922 0.07549,1.962855 z M 69.276677,81.540891 q -2.340326,0.603955 -3.925709,-0.452967 -1.509888,-1.132416 -1.88736,-3.321753 -0.301977,-1.585383 0.226483,-2.793293 0.528461,-1.20791 1.585383,-1.811866 1.056921,-0.679449 2.415821,-0.603955 1.358899,0.0755 2.717798,1.056922 1.283405,0.905933 1.811866,2.113843 0.603955,1.20791 0.377472,2.340326 -0.150989,1.132416 -0.981428,2.113844 -0.830438,0.905932 -2.340326,1.358899 z"
         id="path29" />
      <path
         style="font-family:Jua;-inkscape-font-specification:Jua;letter-spacing:-14.5521px;fill:#030303;fill-opacity:1;stroke-width:0.639396"
         d="m 105.73346,92.110107 q 0.60396,1.434393 0.0755,3.170765 -0.45297,1.736371 -1.73637,2.264832 -0.67945,0.301977 -1.81187,0.52846 -1.13241,0.150989 -2.491314,0.301978 -1.283404,0.150989 -2.566809,0.226483 -1.283405,0.0755 -2.189338,0.0755 0.07549,2.264835 0.150989,4.680655 0.07549,2.34033 0.150989,4.60516 0.07549,2.26483 0.07549,4.37868 0,2.03834 -0.07549,3.69922 0,1.13242 0,2.64231 0,1.43438 -0.226483,2.79329 -0.150989,1.3589 -0.528461,2.41581 -0.377472,0.98144 -1.132416,1.2834 -2.340327,0.98144 -4.303181,0.52846 -1.88736,-0.37747 -2.717798,-1.58538 -0.603956,-0.98142 -0.905933,-2.26483 -0.301978,-1.3589 -0.452967,-2.7178 -0.07549,-1.43439 -0.07549,-2.7178 0.07549,-1.3589 0.07549,-2.34032 0.07549,-3.17077 0.07549,-7.17197 0.07549,-4.0767 0.07549,-8.153391 h -1.132416 q -0.905933,0 -2.340326,0 -1.358899,-0.07549 -2.793293,-0.226483 -1.358899,-0.226483 -2.56681,-0.528461 -1.20791,-0.377472 -1.736371,-1.056922 -0.830438,-0.981427 -1.056921,-2.113843 -0.150989,-1.132416 0.150988,-2.113843 0.377472,-1.056922 1.132416,-1.811866 0.754944,-0.830438 1.736372,-1.056921 1.358899,-0.377472 3.850214,-0.377472 2.491315,-0.0755 4.680653,0 -0.07549,-0.754944 -0.07549,-1.434394 0,-0.754944 -0.07549,-1.434393 -0.07549,-0.905933 -0.07549,-2.264832 0,-1.434394 0.150988,-2.793293 0.226484,-1.434394 0.67945,-2.642304 0.452966,-1.283405 1.283405,-1.962855 1.132416,-0.905932 2.264832,-0.981427 1.20791,-0.150989 2.189337,0.301978 1.056922,0.452966 1.736372,1.358899 0.754944,0.830438 1.056921,1.88736 0.226483,0.905933 0.377472,2.189338 0.150989,1.20791 0.150989,2.566809 0.07549,1.358899 0.07549,2.717799 0,1.358899 0,2.491315 h 0.754944 q 1.132416,0 2.642304,-0.0755 1.509888,-0.07549 2.944282,0.0755 1.50989,0.150989 2.7178,0.754944 1.20791,0.528461 1.81186,1.88736 z"
         id="path30" />
      <path
         style="font-family:Jua;-inkscape-font-specification:Jua;letter-spacing:-15.875px;fill:#030303;fill-opacity:1;stroke-width:0.639396"
         d="m 139.27123,74.293428 q 0.83044,0.981428 0.83044,2.038349 0,0.452967 -0.0755,0.981427 0,0.452967 -0.0755,0.830439 -0.22648,0.830438 -0.98143,1.585382 -0.60395,0.452967 -1.66087,0.67945 -0.52846,0.150989 -1.05692,0.226483 -0.52847,0.07549 -1.13242,0.226483 -0.52846,0.0755 -1.05692,0.0755 -0.52846,0 -1.13242,0 h -3.85021 q -1.3589,0.07549 -2.7178,0.07549 -1.28341,0 -2.56681,0 0.0755,2.340326 0.0755,5.058125 0,2.642304 -0.0755,6.190541 0,3.548236 -0.0755,8.228893 0,4.68065 0,10.87119 v 5.73757 q 0,0.75495 0.0755,1.13242 0,0.30198 0,0.60395 0,0.22649 -0.0755,0.60396 -0.15098,0.67945 -0.22648,1.58538 0,0.37747 -0.0755,0.75495 -0.0755,0.30197 -0.22649,0.67945 -0.30197,0.30197 -0.30197,0.45296 l -0.22649,0.45297 q -0.37747,0.75494 -1.43439,1.43439 -1.66088,0.83044 -3.69923,0.37747 -1.2834,-0.15098 -1.96285,-0.67945 -0.67945,-0.67945 -0.98143,-1.35889 -0.45296,-0.83044 -0.52846,-1.58539 -0.22648,-0.67945 -0.22648,-1.43439 V 81.314408 q -0.45297,0 -1.88736,0 -1.4344,0 -3.09527,0 -1.58538,-0.0755 -3.01978,-0.150989 -1.43439,-0.0755 -1.96285,-0.150989 -0.45297,-0.07549 -1.4344,-0.226483 -0.90593,-0.150989 -1.50988,-0.301978 -1.585386,-0.452966 -2.491319,-1.434393 -0.830438,-0.981428 -0.830438,-2.189338 0,-0.452966 0,-0.905933 0,-0.452966 0.150988,-0.830438 0.226484,-0.905933 1.207911,-1.509888 0.301977,-0.226483 0.905933,-0.528461 0.679445,-0.377472 1.283405,-0.528461 0.90593,-0.301977 2.26483,-0.452966 0.60396,-0.0755 1.20791,-0.0755 0.60396,0 1.28341,0 2.6423,0 4.98263,0 2.41582,0 5.05812,-0.07549 4.37868,-0.07549 8.68186,0 4.37867,0 8.68185,0.150989 0.98143,0.07549 1.88736,0.226483 0.90594,0.150989 1.81187,0.528461 0.67945,0.226483 1.2834,0.603955 0.60396,0.301978 0.98143,0.830438 z"
         id="path31" />
      <path
         style="font-family:Jua;-inkscape-font-specification:Jua;letter-spacing:-3.96875px;fill:#030303;fill-opacity:1;stroke-width:0.639396"
         d="m 140.00498,91.279668 q 2.49131,-1.20791 5.20911,-1.736371 2.7178,-0.528461 5.3601,-0.226483 2.7178,0.301978 5.20912,1.434394 2.56681,1.132416 4.68065,3.170764 1.73637,1.736372 3.01978,4.227687 1.2834,2.415821 1.88736,4.756151 1.2834,4.15219 0.37747,8.37987 -0.90594,4.22769 -3.09527,7.85142 -1.05692,1.66088 -2.64231,3.01978 -1.50988,1.2834 -3.24626,2.11384 -2.26483,1.05692 -4.90713,1.43439 -2.64231,0.45297 -5.13362,0.22649 -4.52967,-0.22649 -8.00241,-2.26483 -3.39725,-2.03835 -5.51109,-5.20912 -2.03835,-3.17076 -2.7178,-7.17197 -0.60395,-4.07669 0.52846,-8.30438 1.20791,-4.529664 3.47275,-7.322956 2.34032,-2.868788 5.51109,-4.378676 z m 2.26483,10.116252 q -1.13242,1.05692 -1.73637,2.6423 -0.60396,1.58538 -0.75495,3.32176 -0.15098,1.66087 0.22649,3.39724 0.45296,1.66088 1.3589,3.01978 0.75494,1.13242 2.71779,1.88736 1.96286,0.75494 4.0767,0.90593 2.41582,0.15099 4.22769,-1.2834 1.81186,-1.50989 2.7178,-3.69923 0.98142,-2.18934 0.90593,-4.75615 -0.0755,-2.5668 -1.3589,-4.68065 -0.90593,-1.50989 -2.56681,-2.189336 -1.58538,-0.754944 -3.39725,-0.754944 -1.73637,-0.07549 -3.47274,0.528461 -1.73637,0.528459 -2.94428,1.660879 z"
         id="path32" />
      <path
         style="font-family:Jua;-inkscape-font-specification:Jua;fill:#030303;fill-opacity:1;stroke-width:0.639396"
         d="m 168.27235,98.67812 q 0,-0.905933 0,-2.038349 0,-1.207911 0.0755,-2.415821 0.0755,-1.283405 0.22649,-2.415821 0.22648,-1.20791 0.60395,-2.113843 0.60396,-1.358899 1.88736,-1.811866 1.28341,-0.52846 2.7933,-0.452966 1.58538,0 2.49131,0.528461 0.90593,0.528461 1.3589,1.434393 0.45297,0.830439 0.52846,1.962855 0.15099,1.056921 0.15099,2.264832 0.67945,-1.207911 1.81187,-1.962855 1.20791,-0.754944 2.41582,-1.20791 1.20791,-0.452966 2.18933,-0.603955 0.98143,-0.226483 1.13242,-0.226483 1.88736,-0.150989 3.39725,-0.0755 1.58538,0.0755 3.47274,0.67945 1.20791,0.452966 2.49132,1.283405 1.2834,0.754944 2.26483,1.811865 0.98142,1.056922 1.2834,2.340327 0.37747,1.20791 -0.30198,2.566809 -1.05692,1.887362 -2.34032,1.887362 -1.28341,-0.0755 -2.79329,-0.452968 -0.83044,-0.150989 -1.96286,-0.67945 -1.13241,-0.528461 -1.96285,-0.679449 -2.56681,-0.377472 -4.52967,0.377472 -1.96285,0.754944 -3.39725,1.811875 -1.66087,1.2834 -2.86878,2.94428 v 10.87119 q 0,2.03835 -0.0755,4.22769 0,2.18933 -0.60395,4.0012 -0.52846,1.73636 -1.88736,2.86879 -1.28341,1.05692 -3.77472,0.90593 -1.3589,-0.0755 -2.41582,-1.2834 -1.05692,-1.28341 -1.28341,-2.49132 -0.15099,-1.13242 -0.22648,-2.7178 -0.0755,-1.58538 -0.15099,-3.32175 0,-1.73637 0,-3.47274 0,-1.81187 0,-3.32176 z"
         id="path33" />
    </g>
    <rect
       style="opacity:1;fill:#030303;fill-opacity:1;stroke:none;stroke-width:0.822908;stroke-dasharray:none;stroke-opacity:1"
       id="rect5"
       width="6.1590433"
       height="24.276714"
       x="-34.563103"
       y="55.268745"
       transform="rotate(-45)" />
    <circle
       style="opacity:1;fill:#030303;fill-opacity:1;stroke:none;stroke-width:0.600001;stroke-dasharray:none;stroke-opacity:1"
       id="path14"
       cx="19.916256"
       cy="52.990353"
       r="1.5" />
    <circle
       style="opacity:1;fill:#030303;fill-opacity:1;stroke:none;stroke-width:0.600001;stroke-dasharray:none;stroke-opacity:1"
       id="path14-3"
       cx="23.400837"
       cy="57.408993"
       r="1.5" />
    <circle
       style="opacity:1;fill:#030303;fill-opacity:1;stroke:none;stroke-width:0.600001;stroke-dasharray:none;stroke-opacity:1"
       id="path14-3-5"
       cx="26.892956"
       cy="61.867477"
       r="1.5" />
    <circle
       style="opacity:1;fill:#030303;fill-opacity:1;stroke:none;stroke-width:0.600001;stroke-dasharray:none;stroke-opacity:1"
       id="path14-6"
       cx="-7.6554041"
       cy="64.45327"
       r="1.5"
       transform="rotate(-14.271649)" />
    <circle
       style="opacity:1;fill:#030303;fill-opacity:1;stroke:none;stroke-width:0.600001;stroke-dasharray:none;stroke-opacity:1"
       id="path14-3-4"
       cx="-4.1708231"
       cy="68.871918"
       r="1.5"
       transform="rotate(-14.271649)" />
    <circle
       style="opacity:1;fill:#030303;fill-opacity:1;stroke:none;stroke-width:0.600001;stroke-dasharray:none;stroke-opacity:1"
       id="path14-3-5-8"
       cx="-0.67870402"
       cy="73.330399"
       r="1.5"
       transform="rotate(-14.271649)" />
    <path
       style="opacity:1;fill:#030303;fill-opacity:1;stroke:none;stroke-width:0.600001;stroke-dasharray:none;stroke-opacity:1"
       d="m 25.39146,66.538529 c 0,0 1.752865,-1.058334 0.628386,-2.447396 -1.124479,-1.389063 -6.052344,-7.772136 -6.052344,-7.772136 0,0 -4.266406,-5.986197 -7.37526,-2.84427 -3.1088543,3.141927 -2.513542,2.480468 -2.513542,2.480468 l 12.46849,13.427604 z"
       id="path24" />
    <path
       style="fill:#030303;fill-opacity:1;stroke:none;stroke-width:0.600001;stroke-dasharray:none;stroke-opacity:1"
       d="m 22.073145,69.822125 c 0,0 -1.058334,1.752865 -2.447396,0.628386 -1.389063,-1.124479 -7.772136,-6.052344 -7.772136,-6.052344 0,0 -5.9861974,-4.266406 -2.84427,-7.37526 3.141927,-3.108855 2.480468,-2.513542 2.480468,-2.513542 l 13.427604,12.46849 z"
       id="path24-1" />
  </g>
</svg>
